<svg version="1.2" xmlns="http://www.w3.org/2000/svg" viewBox="0 0 1000 1000" width="1000" height="1000">
	<title>New Project</title>
	<style>
		.s0 { fill: #000000 } 
		.s1 { fill: none } 
	</style>
	<g id="Folder 1">
		<path id="Shape 11" class="s0" d="m494 161.9c1.5-13.3 5.1-14.7 5.1-14.7l6.2-4.3-2.3 16.1 3 19 2 10 6-3-4-27c0 0 2-7.8 4.6-9.8 3.9-2.8 8.4-3.2 8.4-3.2l3 17 3 27c0 0-1.3 15.4-17.9 14.9-11.1-0.4-15.1-12.9-15.1-12.9 0 0-3-20.6-2-29.1z"/>
	</g>
	<path id="Layer 2" class="s1" d="m0 0h1000v1000h-1000z"/>
</svg>